<svg style="width: 20px;" xmlns="http://www.w3.org/2000/svg" xmlns:xlink="http://www.w3.org/1999/xlink" version="1.1" id="Capa_1" x="0px" y="0px" viewBox="0 0 426.667 426.667" xml:space="preserve"> <g> <g> <path d="M213.333,0C95.513,0,0,95.513,0,213.333s95.513,213.333,213.333,213.333s213.333-95.513,213.333-213.333    S331.154,0,213.333,0z M213.333,388.053c-96.495,0-174.72-78.225-174.72-174.72s78.225-174.72,174.72-174.72    c96.446,0.117,174.602,78.273,174.72,174.72C388.053,309.829,309.829,388.053,213.333,388.053z"></path> </g> </g> <g> <g> <path d="M355.627,213.333L213.333,106.667v80l-106.667-80V320l106.667-80v80L355.627,213.333z M253.013,185.813h0.213l36.48,27.52    l-36.693,27.52V185.813z M146.56,242.773v-58.667l39.04,29.227L146.56,242.773z"></path> </g> </g> </svg>